<svg xmlns="http://www.w3.org/2000/svg" width="320" height="96" viewBox="0 0 320 96" fill="none">
  <defs>
    <linearGradient id="bg_4bandeq" x1="0" y1="0" x2="0" y2="1">
      <stop offset="0%" stop-color="#3b4049"/>
      <stop offset="100%" stop-color="#242933"/>
    </linearGradient>
    <linearGradient id="shine_4bandeq" x1="0" y1="0" x2="1" y2="1">
      <stop offset="0%" stop-color="#ffffff" stop-opacity="0.12"/>
      <stop offset="100%" stop-color="#ffffff" stop-opacity="0"/>
    </linearGradient>
  </defs>
  <rect x="0.5" y="0.5" width="319" height="95" rx="10" fill="url(#bg_4bandeq)" stroke="#dbe2ee" stroke-opacity="0.18"/>
  <rect x="1" y="1" width="318" height="18" rx="9" fill="url(#shine_4bandeq)"/>
  <rect x="8" y="8" width="7" height="7" rx="3.5" fill="#ef4444" fill-opacity="0.85"/>
  <rect x="18" y="8" width="7" height="7" rx="3.5" fill="#f59e0b" fill-opacity="0.75"/>
  <rect x="28" y="8" width="7" height="7" rx="3.5" fill="#22c55e" fill-opacity="0.75"/>
  <g opacity="0.96">
    
    <path d="M14 64 C38 58, 44 34, 64 34 C84 34, 92 60, 116 52 C140 44, 150 24, 172 28 C196 32, 210 48, 234 40 C252 34, 272 20, 306 24" fill="none" stroke="#60a5fa" stroke-width="3" stroke-linecap="round"/>
    <path d="M14 70 C36 66, 46 46, 66 48 C86 50, 94 68, 116 64 C138 60, 152 44, 174 46 C196 48, 212 58, 236 54 C260 50, 280 42, 306 44" fill="none" stroke="#7cff66" stroke-width="4" stroke-linecap="round"/>
    <rect x="56" y="16" width="6" height="34" rx="3" fill="#e5e7eb" fill-opacity="0.8"/>
    <rect x="126" y="14" width="6" height="38" rx="3" fill="#e5e7eb" fill-opacity="0.8"/>
    <rect x="196" y="12" width="6" height="42" rx="3" fill="#e5e7eb" fill-opacity="0.8"/>
    <rect x="266" y="18" width="6" height="32" rx="3" fill="#e5e7eb" fill-opacity="0.8"/>
    
  </g>
  <rect x="10" y="76" width="300" height="10" rx="5" fill="#0f131a" fill-opacity="0.42"/>
  <text x="16" y="84" fill="#f3f4f6" fill-opacity="0.92" font-size="8.6" font-family="ui-monospace, SFMono-Regular, Menlo, monospace">Tracktion EQ</text>
</svg>
