<svg xmlns="http://www.w3.org/2000/svg" width="320" height="96" viewBox="0 0 320 96" fill="none">
  <defs>
    <linearGradient id="bg_chorus" x1="0" y1="0" x2="0" y2="1">
      <stop offset="0%" stop-color="#3b4049"/>
      <stop offset="100%" stop-color="#242933"/>
    </linearGradient>
    <linearGradient id="shine_chorus" x1="0" y1="0" x2="1" y2="1">
      <stop offset="0%" stop-color="#ffffff" stop-opacity="0.12"/>
      <stop offset="100%" stop-color="#ffffff" stop-opacity="0"/>
    </linearGradient>
  </defs>
  <rect x="0.5" y="0.5" width="319" height="95" rx="10" fill="url(#bg_chorus)" stroke="#dbe2ee" stroke-opacity="0.18"/>
  <rect x="1" y="1" width="318" height="18" rx="9" fill="url(#shine_chorus)"/>
  <rect x="8" y="8" width="7" height="7" rx="3.5" fill="#ef4444" fill-opacity="0.85"/>
  <rect x="18" y="8" width="7" height="7" rx="3.5" fill="#f59e0b" fill-opacity="0.75"/>
  <rect x="28" y="8" width="7" height="7" rx="3.5" fill="#22c55e" fill-opacity="0.75"/>
  <g opacity="0.96">
    
    <path d="M18 52 C38 34, 58 34, 78 52 C98 70, 118 70, 138 52 C158 34, 178 34, 198 52 C218 70, 238 70, 258 52 C274 38, 290 38, 306 52" fill="none" stroke="#22d3ee" stroke-width="4" stroke-linecap="round"/>
    <path d="M18 42 C38 24, 58 24, 78 42 C98 60, 118 60, 138 42 C158 24, 178 24, 198 42 C218 60, 238 60, 258 42 C274 28, 290 28, 306 42" fill="none" stroke="#34d399" stroke-width="2.5" stroke-linecap="round" stroke-opacity="0.85"/>
    <path d="M18 62 C38 44, 58 44, 78 62 C98 80, 118 80, 138 62 C158 44, 178 44, 198 62 C218 80, 238 80, 258 62 C274 48, 290 48, 306 62" fill="none" stroke="#f8fafc" stroke-width="2" stroke-linecap="round" stroke-opacity="0.28"/>
    
  </g>
  <rect x="10" y="76" width="300" height="10" rx="5" fill="#0f131a" fill-opacity="0.42"/>
  <text x="16" y="84" fill="#f3f4f6" fill-opacity="0.92" font-size="8.6" font-family="ui-monospace, SFMono-Regular, Menlo, monospace">Tracktion Chorus</text>
</svg>
