<svg xmlns="http://www.w3.org/2000/svg" width="320" height="96" viewBox="0 0 320 96" fill="none">
  <defs>
    <linearGradient id="bg_delay" x1="0" y1="0" x2="0" y2="1">
      <stop offset="0%" stop-color="#3b4049"/>
      <stop offset="100%" stop-color="#242933"/>
    </linearGradient>
    <linearGradient id="shine_delay" x1="0" y1="0" x2="1" y2="1">
      <stop offset="0%" stop-color="#ffffff" stop-opacity="0.12"/>
      <stop offset="100%" stop-color="#ffffff" stop-opacity="0"/>
    </linearGradient>
  </defs>
  <rect x="0.5" y="0.5" width="319" height="95" rx="10" fill="url(#bg_delay)" stroke="#dbe2ee" stroke-opacity="0.18"/>
  <rect x="1" y="1" width="318" height="18" rx="9" fill="url(#shine_delay)"/>
  <rect x="8" y="8" width="7" height="7" rx="3.5" fill="#ef4444" fill-opacity="0.85"/>
  <rect x="18" y="8" width="7" height="7" rx="3.5" fill="#f59e0b" fill-opacity="0.75"/>
  <rect x="28" y="8" width="7" height="7" rx="3.5" fill="#22c55e" fill-opacity="0.75"/>
  <g opacity="0.96">
    
    <rect x="18" y="18" width="42" height="56" rx="8" fill="#f97316" fill-opacity="0.18" stroke="#f97316" stroke-opacity="0.45"/>
    <rect x="72" y="18" width="42" height="56" rx="8" fill="#f97316" fill-opacity="0.12" stroke="#f97316" stroke-opacity="0.34"/>
    <rect x="126" y="18" width="42" height="56" rx="8" fill="#f97316" fill-opacity="0.08" stroke="#f97316" stroke-opacity="0.24"/>
    <path d="M198 26 L304 26" stroke="#f8fafc" stroke-opacity="0.25" stroke-width="2"/>
    <path d="M198 40 L280 40" stroke="#f8fafc" stroke-opacity="0.55" stroke-width="2.5"/>
    <path d="M198 54 L304 54" stroke="#f8fafc" stroke-opacity="0.25" stroke-width="2"/>
    <path d="M198 68 L248 68" stroke="#fb7185" stroke-width="2.5"/>
    
  </g>
  <rect x="10" y="76" width="300" height="10" rx="5" fill="#0f131a" fill-opacity="0.42"/>
  <text x="16" y="84" fill="#f3f4f6" fill-opacity="0.92" font-size="8.6" font-family="ui-monospace, SFMono-Regular, Menlo, monospace">Tracktion Delay</text>
</svg>
