<svg xmlns="http://www.w3.org/2000/svg" width="320" height="96" viewBox="0 0 320 96" fill="none">
  <defs>
    <linearGradient id="bg_lowpass" x1="0" y1="0" x2="0" y2="1">
      <stop offset="0%" stop-color="#3b4049"/>
      <stop offset="100%" stop-color="#242933"/>
    </linearGradient>
    <linearGradient id="shine_lowpass" x1="0" y1="0" x2="1" y2="1">
      <stop offset="0%" stop-color="#ffffff" stop-opacity="0.12"/>
      <stop offset="100%" stop-color="#ffffff" stop-opacity="0"/>
    </linearGradient>
  </defs>
  <rect x="0.5" y="0.5" width="319" height="95" rx="10" fill="url(#bg_lowpass)" stroke="#dbe2ee" stroke-opacity="0.18"/>
  <rect x="1" y="1" width="318" height="18" rx="9" fill="url(#shine_lowpass)"/>
  <rect x="8" y="8" width="7" height="7" rx="3.5" fill="#ef4444" fill-opacity="0.85"/>
  <rect x="18" y="8" width="7" height="7" rx="3.5" fill="#f59e0b" fill-opacity="0.75"/>
  <rect x="28" y="8" width="7" height="7" rx="3.5" fill="#22c55e" fill-opacity="0.75"/>
  <g opacity="0.96">
    
    <path d="M16 26 L304 26" stroke="#f8fafc" stroke-opacity="0.2" stroke-width="2"/>
    <path d="M16 46 L304 46" stroke="#f8fafc" stroke-opacity="0.2" stroke-width="2"/>
    <path d="M16 66 L304 66" stroke="#f8fafc" stroke-opacity="0.2" stroke-width="2"/>
    <path d="M22 64 C74 64, 104 64, 132 62 C156 60, 174 52, 186 40 C198 28, 212 26, 300 26" fill="none" stroke="#a3e635" stroke-width="4" stroke-linecap="round"/>
    <circle cx="188" cy="38" r="5" fill="#facc15"/>
    
  </g>
  <rect x="10" y="76" width="300" height="10" rx="5" fill="#0f131a" fill-opacity="0.42"/>
  <text x="16" y="84" fill="#f3f4f6" fill-opacity="0.92" font-size="8.6" font-family="ui-monospace, SFMono-Regular, Menlo, monospace">Tracktion Low Pass</text>
</svg>
