<svg xmlns="http://www.w3.org/2000/svg" width="320" height="96" viewBox="0 0 320 96" fill="none">
  <defs>
    <linearGradient id="bg_pitchshifter" x1="0" y1="0" x2="0" y2="1">
      <stop offset="0%" stop-color="#3b4049"/>
      <stop offset="100%" stop-color="#242933"/>
    </linearGradient>
    <linearGradient id="shine_pitchshifter" x1="0" y1="0" x2="1" y2="1">
      <stop offset="0%" stop-color="#ffffff" stop-opacity="0.12"/>
      <stop offset="100%" stop-color="#ffffff" stop-opacity="0"/>
    </linearGradient>
  </defs>
  <rect x="0.5" y="0.5" width="319" height="95" rx="10" fill="url(#bg_pitchshifter)" stroke="#dbe2ee" stroke-opacity="0.18"/>
  <rect x="1" y="1" width="318" height="18" rx="9" fill="url(#shine_pitchshifter)"/>
  <rect x="8" y="8" width="7" height="7" rx="3.5" fill="#ef4444" fill-opacity="0.85"/>
  <rect x="18" y="8" width="7" height="7" rx="3.5" fill="#f59e0b" fill-opacity="0.75"/>
  <rect x="28" y="8" width="7" height="7" rx="3.5" fill="#22c55e" fill-opacity="0.75"/>
  <g opacity="0.96">
    
    <path d="M26 66 L26 24" stroke="#f8fafc" stroke-opacity="0.4" stroke-width="2"/>
    <path d="M26 58 C56 54, 82 44, 110 36 C138 28, 166 22, 194 18" fill="none" stroke="#fb7185" stroke-width="4" stroke-linecap="round"/>
    <path d="M26 74 C56 70, 82 60, 110 52 C138 44, 166 38, 194 34" fill="none" stroke="#f59e0b" stroke-width="2.5" stroke-linecap="round"/>
    <path d="M214 28 L304 28" stroke="#f8fafc" stroke-opacity="0.2" stroke-width="2"/>
    <path d="M214 46 L304 46" stroke="#f8fafc" stroke-opacity="0.2" stroke-width="2"/>
    <path d="M214 64 L304 64" stroke="#f8fafc" stroke-opacity="0.2" stroke-width="2"/>
    <path d="M272 64 L304 64" stroke="#fb7185" stroke-width="3" stroke-linecap="round"/>
    
  </g>
  <rect x="10" y="76" width="300" height="10" rx="5" fill="#0f131a" fill-opacity="0.42"/>
  <text x="16" y="84" fill="#f3f4f6" fill-opacity="0.92" font-size="8.6" font-family="ui-monospace, SFMono-Regular, Menlo, monospace">Tracktion Pitch Shift</text>
</svg>
