<svg xmlns="http://www.w3.org/2000/svg" width="320" height="96" viewBox="0 0 320 96" fill="none">
  <defs>
    <linearGradient id="bg_reverb" x1="0" y1="0" x2="0" y2="1">
      <stop offset="0%" stop-color="#3b4049"/>
      <stop offset="100%" stop-color="#242933"/>
    </linearGradient>
    <linearGradient id="shine_reverb" x1="0" y1="0" x2="1" y2="1">
      <stop offset="0%" stop-color="#ffffff" stop-opacity="0.12"/>
      <stop offset="100%" stop-color="#ffffff" stop-opacity="0"/>
    </linearGradient>
  </defs>
  <rect x="0.5" y="0.5" width="319" height="95" rx="10" fill="url(#bg_reverb)" stroke="#dbe2ee" stroke-opacity="0.18"/>
  <rect x="1" y="1" width="318" height="18" rx="9" fill="url(#shine_reverb)"/>
  <rect x="8" y="8" width="7" height="7" rx="3.5" fill="#ef4444" fill-opacity="0.85"/>
  <rect x="18" y="8" width="7" height="7" rx="3.5" fill="#f59e0b" fill-opacity="0.75"/>
  <rect x="28" y="8" width="7" height="7" rx="3.5" fill="#22c55e" fill-opacity="0.75"/>
  <g opacity="0.96">
    
    <circle cx="72" cy="46" r="23" fill="#a78bfa" fill-opacity="0.28" stroke="#a78bfa" stroke-opacity="0.5"/>
    <circle cx="72" cy="46" r="10" fill="#38bdf8" fill-opacity="0.5"/>
    <path d="M120 26 C148 18, 182 18, 214 30 C246 42, 274 42, 304 34" fill="none" stroke="#38bdf8" stroke-width="3" stroke-linecap="round"/>
    <path d="M120 42 C146 34, 182 34, 214 46 C248 58, 274 58, 304 50" fill="none" stroke="#f8fafc" stroke-width="2" stroke-opacity="0.42" stroke-linecap="round"/>
    <path d="M120 58 C146 50, 182 50, 214 62 C248 74, 274 74, 304 66" fill="none" stroke="#a78bfa" stroke-width="2.5" stroke-linecap="round"/>
    
  </g>
  <rect x="10" y="76" width="300" height="10" rx="5" fill="#0f131a" fill-opacity="0.42"/>
  <text x="16" y="84" fill="#f3f4f6" fill-opacity="0.92" font-size="8.6" font-family="ui-monospace, SFMono-Regular, Menlo, monospace">Tracktion Reverb</text>
</svg>
